# xmcd
#
# Track frame offsets:
#	150
#	18430
#	39577
#	63650
#	81152
#	100450
#	114410
#	141760
#	159737
#	178987
#	196945
#	206140
#	226945
#	249325
#	277275
#	303627
#	316687
#
# Disc length: 4472
#
# Revision: 1
# Processed by: cddbd v1.5.1PL0 Copyright (c) Steve Scherf et al.
# Submitted via: CDex 1.51
# Normalized: r0:DSETVAR1,TDELIM( - )
#
DISCID=f7117611
DTITLE=Various Artist - Mind Music
DYEAR=1999
DGENRE=New Age
TTITLE0=Sarah Brightman - Eden
TTITLE1=Ryuichi Sakamoto - Heartbeat
TTITLE2=Enigma - Age Of Loneliness (Carly's Song)
TTITLE3=Yanni - Adagio In C Minor
TTITLE4=Mike Oldfield - Tubular Bells Opening Theme
TTITLE5=Madredeus - A Andorinha Da Primavera
TTITLE6=Craig Armstrong - Weather Storm
TTITLE7=Adiemus - Adiemus
TTITLE8=Robbie Robertson and The Red Road Ensumble - Mahk Jchi
TTITLE9=David Sylvian - Praise
TTITLE10=Michael Nyman - Masuria
TTITLE11=Sacred Spirit - Culture Clash
TTITLE12=Tangerine Dream - Logos Part One (A)
TTITLE13=Dreadzone - Dream Within A Dream
TTITLE14=Afro Celt Sound System - Sure-As-Not
TTITLE15=Jonathan Cain - From The First Look
TTITLE16=Nikos Gregoriadis - Silver Circle
EXTD=YEAR: 1999
EXTT0=
EXTT1=
EXTT2=
EXTT3=
EXTT4=
EXTT5=
EXTT6=
EXTT7=
EXTT8=
EXTT9=
EXTT10=
EXTT11=
EXTT12=
EXTT13=
EXTT14=
EXTT15=
EXTT16=
PLAYORDER=
